<svg width="7" height="9" viewBox="0 0 7 9" fill="none" xmlns="http://www.w3.org/2000/svg">
<path d="M5.71732 6.74228H3.38516V5.23454H4.78446C5.01767 5.23454 5.25089 4.8866 5.25089 4.46135C5.25089 4.03609 5.05654 3.68815 4.78446 3.68815H3.38516V3.10825C3.38516 2.56702 3.81273 2.14176 4.3569 2.14176H5.67845C5.91167 2.14176 6.14488 1.79382 6.14488 1.36856C6.14488 0.943306 5.95054 0.595367 5.67845 0.595367H4.3569C2.99647 0.595367 1.86926 1.7165 1.86926 3.06959V3.64949H1.40283C1.16962 3.64949 0.936401 3.99743 0.936401 4.42269C0.936401 4.84795 1.13075 5.19588 1.40283 5.19588H1.86926V6.70362H1.40283C1.16962 6.70362 0.936401 7.05155 0.936401 7.47681C0.936401 7.90207 1.13075 8.25001 1.40283 8.25001H5.71732C5.95054 8.21135 6.14488 7.90207 6.14488 7.51547C6.10601 7.09021 5.95054 6.78093 5.71732 6.74228Z" fill="#00A100"/>
</svg>
