<svg width="230" height="234" viewBox="0 0 230 234" fill="none" xmlns="http://www.w3.org/2000/svg">
<g clip-path="url(#clip0_180_4751)">
<rect x="31" y="35" width="199" height="199" rx="99.5" fill="#E9E9E9"/>
<g clip-path="url(#clip1_180_4751)">
<path d="M194.345 91.1538C189.753 87.6289 176.392 84.6202 176.392 84.6202V84.6246C163.968 79.8035 154.568 77.2822 147.873 75.9861C147.873 75.9861 143.167 70.177 142.07 66.827C140.974 63.4771 140.801 60.136 138.749 60.0585C138.749 60.0585 137.346 61.0156 134.645 61.7689C133.207 62.1699 131.413 62.5156 129.233 62.6219C125.486 62.8058 120.658 62.2918 114.796 60.1826C114.796 60.1826 112.534 60.1117 111.515 64.9416C110.493 69.7737 104.754 75.4544 104.754 75.4566C98.4454 77.331 81.9761 82.1919 76.9431 83.3794C76.9431 83.3794 64.0372 86.674 59.0042 89.5298C55.2509 91.6612 41.6875 131.605 40.5026 135.11C40.5468 135.126 40.5953 135.13 40.6328 135.166C40.6372 135.17 43.3071 137.911 46.2925 141.591C49.2779 145.275 52.5766 149.884 53.8454 153.695C55.3612 158.272 56.4821 162.422 56.4865 164.876C56.4865 165.382 56.4402 165.818 56.3277 166.186C56.2769 166.35 56.1048 166.443 55.9393 166.392C55.7761 166.341 55.6834 166.168 55.7341 166.002C55.8202 165.723 55.8665 165.34 55.8665 164.874C55.8709 162.592 54.7699 158.436 53.2584 153.89C51.4425 148.395 44.9929 140.827 41.8861 137.417C40.8513 136.278 40.1915 135.6 40.1893 135.598C40.1187 135.525 40.1033 135.43 40.1187 135.336C34.3487 134.441 30.7587 119.096 28.1771 116.504C27.3298 115.653 26.5332 115.328 25.9573 115.206C24.9666 112.363 23.0271 107.155 22.182 107.385C22.1511 107.394 22.1026 107.407 22.0496 107.423C20.1432 107.979 4.6359 112.902 4.19459 113.225C4.13723 113.267 4.07986 113.312 4.02469 113.36C3.64076 113.69 3.33185 114.211 3.52161 115.682C3.65841 116.735 4.73519 119.646 5.52291 121.682C4.60942 123.195 5.86271 124.633 5.86271 124.633C16.8004 163.95 24.02 183.024 44.1456 182.641C64.1983 182.257 72.7948 145.058 72.7948 145.058C73.8893 142.863 75.2109 133.254 75.2109 133.254V133.249C76.2061 162.998 79.6995 223.307 81.5 233L174 234.5C174.576 232.812 177.085 173.617 179.429 143.973C179.404 143.973 179.382 143.986 179.358 143.979C179.195 143.926 179.104 143.751 179.157 143.587C179.157 143.587 179.296 143.151 179.541 142.349C179.786 141.549 180.137 140.388 180.556 138.943C181.397 136.054 182.518 132.031 183.639 127.502C185.88 118.445 188.118 107.35 188.118 99.265C188.118 98.5427 188.1 97.8448 188.063 97.1757C188.054 97.0051 188.184 96.8567 188.354 96.8478C188.524 96.839 188.672 96.9697 188.68 97.1403C188.718 97.8227 188.736 98.5316 188.736 99.265C188.729 115.638 179.749 143.76 179.746 143.778C179.709 143.893 179.607 143.951 179.495 143.968C183.12 168.222 192.849 233.171 194.206 240.666C194.263 240.981 194.711 241.242 195.439 241.455C195.536 244.947 195.933 251.308 197.553 251.389C199.631 251.496 214.212 250.645 216.204 250.528C216.352 250.519 216.436 250.514 216.436 250.514C216.436 250.514 218.049 250.514 218.159 248.319C218.245 246.588 218.197 241.951 218.17 240.052C218.607 239.798 218.896 239.519 218.998 239.217C218.998 239.217 217.239 108.728 194.342 91.1561L194.345 91.1538Z" fill="#D7FDD7"/>
<path d="M127.443 56.8149C127.443 56.8149 133.227 57.473 137.743 51.2672C140.04 48.11 142 43.1582 142.71 35.4525C142.776 34.7436 142.829 34.0124 142.873 33.2547C142.917 32.5014 142.951 31.7304 142.97 30.9284C143.01 29.3708 143.012 27.7358 142.955 25.9855C142.964 25.9611 142.975 25.9345 142.984 25.9101C144.098 23.0366 145.404 18.1092 144.917 13.5784C144.917 13.5784 143.838 10.5032 142.099 10.3193C142.099 10.3193 142.911 6.40217 141.088 4.4259C139.266 2.44962 130.479 -1.46748 124.427 -0.955689C118.375 -0.443896 113.293 4.69841 112.869 5.56026C112.135 7.06019 112.98 9.66125 112.98 9.66125C112.98 9.66125 110.572 11.8945 109.99 13.5784C109.407 15.2622 111.137 25.8946 111.398 26.1494V26.1539C111.402 26.1782 111.746 27.8222 112.139 28.6043H112.135C112.135 28.6043 112.165 29.6411 112.315 31.3205C112.366 31.8833 112.43 32.5169 112.512 33.2104C112.589 33.8618 112.68 34.5641 112.79 35.3085C113.35 39.106 114.381 43.9293 116.263 48.1676C116.541 48.7946 116.837 49.4105 117.154 50.0087C121.084 57.3954 127.448 56.8171 127.448 56.8171L127.443 56.8149Z" fill="#201823"/>
<path d="M129.235 62.6219C124.103 61.4233 118.975 55.4723 116.009 51.44C116.02 51.3159 116.029 51.1963 116.04 51.0744C115.795 53.8882 115.407 57.0653 114.798 60.1848C120.661 62.294 125.488 62.8058 129.235 62.6241V62.6219Z" fill="#F6B17A"/>
<path d="M138.361 57.5505L138.354 57.5571C138.354 57.5571 138.354 57.5727 138.357 57.5815L138.361 57.6192C137.207 59.6132 135.954 60.9447 134.645 61.7711C137.346 61.0178 138.749 60.0607 138.749 60.0607C138.608 59.2676 138.478 58.4234 138.359 57.5527L138.361 57.5505Z" fill="#F6B17A"/>
<path d="M129.235 62.6219C131.415 62.5156 133.209 62.1699 134.647 61.7689C135.956 60.9425 137.209 59.611 138.363 57.617L138.359 57.5793C138.337 57.422 138.317 57.2536 138.297 57.0941C138.266 56.8615 138.235 56.6266 138.207 56.3873C138.196 56.2987 138.182 56.2145 138.173 56.1237L138.147 55.9021C138.127 55.7249 138.109 55.5366 138.09 55.3549C138.063 55.109 138.037 54.8652 138.01 54.6149C138.004 54.5462 137.995 54.4819 137.988 54.4133L137.962 54.1341C137.944 53.9347 137.929 53.7264 137.911 53.5248C137.889 53.2723 137.867 53.0197 137.847 52.7627C137.842 52.7073 137.838 52.6563 137.834 52.6009L137.809 52.2753C137.792 52.0382 137.778 51.79 137.763 51.5486C137.756 51.4533 137.75 51.358 137.745 51.2605C133.231 57.4685 127.445 56.8083 127.445 56.8083C127.445 56.8083 121.082 57.3865 117.152 49.9999C116.834 49.4039 116.539 48.788 116.261 48.1588C116.254 48.2651 116.247 48.3692 116.241 48.4778C116.221 48.8035 116.197 49.1358 116.172 49.4748C116.164 49.5878 116.155 49.7074 116.146 49.8226C116.126 50.0752 116.106 50.3278 116.086 50.587C116.073 50.7443 116.06 50.906 116.044 51.0656C116.033 51.1874 116.025 51.3071 116.014 51.4311C118.979 55.4634 124.107 61.4144 129.239 62.613L129.235 62.6219Z" fill="#F08251"/>
<path d="M142.968 30.9284C143.068 30.5983 143.182 30.2748 143.308 29.9602C143.308 29.958 143.308 29.9535 143.308 29.9513C143.31 29.9424 143.317 29.9358 143.321 29.9269C143.46 29.5813 143.606 29.2468 143.754 28.9366C144.303 27.7934 144.848 26.9625 144.855 26.9559C144.95 26.8119 145.142 26.7742 145.285 26.8673C145.428 26.9625 145.466 27.1553 145.373 27.2993C145.373 27.2993 145.243 27.4965 145.045 27.8355C144.855 28.1589 144.603 28.6175 144.35 29.1382C144.612 29.074 144.877 29.0429 145.12 29.0429C145.596 29.0429 145.978 29.1183 145.989 29.1205C146.157 29.1537 146.267 29.3154 146.234 29.486C146.201 29.6544 146.04 29.7652 145.87 29.732C145.87 29.732 145.79 29.7165 145.654 29.701C145.517 29.6832 145.325 29.6677 145.117 29.6677C144.846 29.6677 144.546 29.6987 144.321 29.7829C144.096 29.8693 143.963 29.9801 143.899 30.1507C143.542 31.0458 143.262 32.0206 143.264 32.847V32.9711C143.273 33.1439 143.138 33.2879 142.968 33.2924C142.933 33.2924 142.909 33.268 142.876 33.2569C142.831 34.0146 142.778 34.7458 142.712 35.4548C147.655 35.2221 147.467 26.1339 145.782 25.2876C144.804 24.7957 143.827 25.2078 142.986 25.9124C142.977 25.9367 142.966 25.9633 142.957 25.9877C143.015 27.738 143.012 29.3731 142.973 30.9306L142.968 30.9284Z" fill="#F6B17A"/>
<path d="M112.424 33.556C112.368 33.7178 112.194 33.8064 112.031 33.751C111.87 33.6956 111.782 33.5206 111.837 33.3566C111.914 33.1284 111.949 32.8914 111.949 32.6454C111.956 31.6883 111.376 30.5983 110.678 29.6677C110.164 29.4041 109.793 29.3221 109.549 29.3221C109.109 29.3287 109.01 29.5414 108.988 29.5614H108.986C108.911 29.7098 108.732 29.7763 108.58 29.7054C108.425 29.6323 108.357 29.4484 108.43 29.2911C108.443 29.2379 108.754 28.6929 109.549 28.6995C109.661 28.6995 109.785 28.7128 109.915 28.7372C109.385 28.1523 108.893 27.6981 108.659 27.4921L108.514 27.368C108.381 27.2594 108.361 27.0622 108.472 26.9293C108.58 26.7964 108.776 26.7764 108.909 26.8872C108.917 26.8939 109.816 27.6361 110.722 28.715C111.342 29.4595 111.974 30.3612 112.313 31.3205C112.163 29.6411 112.132 28.6065 112.132 28.6065H112.137C111.744 27.8222 111.402 26.1782 111.395 26.1539C110.497 25.3075 109.416 24.7381 108.333 25.2831C106.501 26.2004 106.437 36.8395 112.788 35.3041C112.677 34.5619 112.587 33.8596 112.51 33.206C112.488 33.3212 112.463 33.4386 112.426 33.5516L112.424 33.556Z" fill="#F6B17A"/>
<path d="M116.439 14.531C116.322 15.9579 116.329 18.7783 115.18 21.1977C114.511 22.6045 114.248 25.7595 114.056 27.461C114.176 29.4816 115.131 38.0447 118.743 43.9248C118.992 41.563 120.588 38.2707 127.567 38.2907C134.383 38.3106 135.685 42.1059 135.771 44.7224C140.329 37.8409 140.839 26.1915 140.839 26.1915C140.184 23.4575 139.528 19.002 139.773 17.8987C140.137 16.2503 138.897 13.5784 137.624 12.6633C136.349 11.7483 131.812 13.4654 128.897 13.3923C125.98 13.3191 122.227 11.3805 119.976 11.3451C117.726 11.3074 116.556 13.102 116.439 14.531Z" fill="#F6B17A"/>
<path d="M133.846 47.0576C134.288 39.9811 127.567 40.5971 127.567 40.5971C127.567 40.5971 120.844 39.8504 120.596 46.3996C122.529 48.4955 125.009 49.8271 128.189 49.641C130.455 49.508 132.315 48.5332 133.846 47.0598V47.0576Z" fill="#F6B17A"/>
<path d="M130.797 44.9107C131.596 44.1863 131.995 43.3089 131.768 42.7262C131.768 42.7262 131.439 42.1657 129.588 42.7262C127.739 43.289 124.906 42.5999 124.109 42.4781C123.313 42.354 123.044 43.1959 123.578 43.947C123.778 44.2306 124.178 44.6604 124.721 45.0658C126.795 43.3222 130.003 44.3103 130.797 44.913V44.9107Z" fill="#201823"/>
<path d="M128.216 37.9096C128.216 37.9096 128.811 37.8608 129.462 37.7213C129.789 37.6504 130.131 37.5595 130.433 37.431C130.733 37.3003 131.007 37.1474 131.174 36.8683C131.265 36.6977 131.267 36.5515 131.272 36.3676C131.267 35.5101 130.868 33.7665 130.471 32.1824C130.073 30.6071 129.676 29.2313 129.676 29.229C129.628 29.0651 129.458 28.9698 129.292 29.0163C129.129 29.0651 129.034 29.2357 129.08 29.4019C129.08 29.4041 129.475 30.7733 129.87 32.3352C130.265 33.8906 130.658 35.6719 130.654 36.3676L130.645 36.5293L130.638 36.5603C130.603 36.629 130.44 36.7597 130.197 36.8594C129.828 37.0167 129.314 37.1297 128.9 37.1962C128.485 37.2649 128.171 37.2892 128.171 37.2892C128.001 37.3025 127.874 37.4532 127.889 37.6238C127.902 37.7944 128.052 37.9229 128.222 37.9074L128.216 37.9096Z" fill="#DB8252"/>
<path d="M120.751 36.1615C122.261 36.1615 123.485 35.3729 123.485 34.4002C123.485 33.4274 122.261 32.6388 120.751 32.6388C119.241 32.6388 118.017 33.4274 118.017 34.4002C118.017 35.3729 119.241 36.1615 120.751 36.1615Z" fill="#F29174"/>
<path d="M135.746 31.9431C134.237 31.9431 133.012 32.7318 133.012 33.7045C133.012 34.6771 134.237 35.4658 135.746 35.4658C137.256 35.4658 138.48 34.6771 138.48 33.7045C138.48 32.7318 137.256 31.9431 135.746 31.9431Z" fill="#F29174"/>
<path d="M73.5892 115.642C71.771 107.013 68.2715 96.9985 61.3894 91.4862C61.2548 91.3798 61.0607 91.402 60.9547 91.5349C60.8488 91.6701 60.8709 91.865 61.0033 91.9714C67.6846 97.302 71.1863 107.197 72.9824 115.769C73.8827 120.054 74.3615 124.002 74.613 126.88C74.7388 128.318 74.8094 129.487 74.8491 130.298C74.8866 131.109 74.8932 131.552 74.8954 131.554C74.8976 131.727 75.0389 131.862 75.211 131.86C75.3831 131.858 75.5177 131.716 75.5155 131.543C75.5155 131.53 75.4029 124.27 73.5914 115.64L73.5892 115.642Z" fill="#333044"/>
<path d="M117.582 42.7063L117.644 42.5623C117.699 42.3983 117.611 42.2233 117.448 42.1679C117.289 42.1147 117.119 42.2011 117.062 42.3584H117.06C117.031 42.4271 116.804 42.888 116.539 43.4374C116.272 43.9913 115.956 44.6537 115.725 45.1966C115.656 45.3539 115.729 45.5378 115.886 45.6064C116.042 45.6751 116.225 45.602 116.294 45.4425C116.526 44.9019 116.85 44.2173 117.121 43.6567C117.256 43.3754 117.379 43.125 117.47 42.9389L117.58 42.7063H117.582Z" fill="#695172"/>
<path d="M119.125 45.1633C119.12 45.1788 117.777 47.4586 117.415 48.9453C117.375 49.1114 117.477 49.2798 117.642 49.3219C117.807 49.3618 117.975 49.2599 118.017 49.0937C118.172 48.4423 118.584 47.5251 118.957 46.7873C119.33 46.0473 119.659 45.4824 119.659 45.4801C119.745 45.3317 119.696 45.1412 119.548 45.0548C119.401 44.9683 119.211 45.0171 119.125 45.1655V45.1633Z" fill="#695172"/>
<path d="M121.768 48.1299C121.768 48.1299 121.28 48.9874 120.793 50.0265C120.307 51.0744 119.809 52.2642 119.8 53.0928L119.813 53.3077C119.837 53.4783 119.994 53.5957 120.164 53.5714C120.334 53.547 120.451 53.3897 120.427 53.2191L120.418 53.0928C120.409 52.5101 120.872 51.2982 121.351 50.2923C121.589 49.785 121.828 49.3219 122.006 48.9829C122.185 48.6462 122.302 48.4379 122.302 48.4379C122.386 48.2895 122.335 48.0989 122.185 48.0125C122.037 47.9283 121.848 47.9793 121.762 48.1299H121.768Z" fill="#695172"/>
<path d="M125.153 49.5213C124.987 49.4814 124.82 49.5834 124.778 49.7495C124.778 49.7495 124.524 50.7931 124.268 51.9806C124.012 53.1748 123.754 54.4864 123.747 55.1311C123.747 55.3039 123.884 55.4435 124.056 55.4435C124.228 55.4435 124.367 55.3061 124.367 55.1333C124.367 54.626 124.619 53.2833 124.873 52.1113C125.126 50.9326 125.378 49.9002 125.378 49.898C125.418 49.7318 125.316 49.5634 125.151 49.5213H125.153Z" fill="#695172"/>
<path d="M128.202 49.8404C128.032 49.8337 127.887 49.9666 127.878 50.1372L127.613 56.1414C127.607 56.312 127.739 56.4582 127.909 56.4671C128.081 56.4737 128.224 56.3408 128.233 56.1702L128.498 50.166C128.505 49.9932 128.372 49.8492 128.202 49.8404Z" fill="#695172"/>
<path d="M131.662 50.9924C131.494 50.6224 131.342 50.2968 131.225 50.0619C131.166 49.9445 131.115 49.847 131.075 49.7739L131.016 49.6764L130.976 49.6254C130.952 49.6055 130.947 49.5745 130.83 49.528C130.667 49.4726 130.493 49.5612 130.437 49.7251C130.4 49.8359 130.444 49.9378 130.517 50.0176L130.501 50.0287C130.535 50.073 130.691 50.3743 130.872 50.762C131.15 51.3514 131.516 52.1888 131.812 52.9643C132.108 53.7287 132.326 54.4709 132.32 54.7279V54.7522C132.311 54.9251 132.441 55.0691 132.613 55.0779C132.783 55.0868 132.929 54.9539 132.937 54.7833V54.7279C132.935 54.3911 132.814 53.9591 132.642 53.4384C132.381 52.6652 131.995 51.7391 131.662 50.9969V50.9924Z" fill="#695172"/>
<path d="M136.693 44.5075C136.547 44.4167 136.358 44.461 136.265 44.605C136.174 44.7512 136.219 44.9418 136.362 45.0348C136.362 45.0348 136.51 45.1279 136.737 45.283C137.079 45.5156 137.598 45.8856 138.039 46.2689C138.26 46.4594 138.458 46.6544 138.606 46.8294C138.754 47.0022 138.838 47.1618 138.851 47.2349C138.886 47.4032 139.052 47.5096 139.219 47.4741C139.387 47.4387 139.493 47.2725 139.458 47.1041C139.381 46.774 139.16 46.5015 138.891 46.2157C138.081 45.376 136.704 44.5164 136.695 44.5075H136.693Z" fill="#695172"/>
<path d="M140.212 42.4825C139.471 41.9818 138.315 41.3858 138.31 41.3836C138.158 41.306 137.97 41.3659 137.893 41.5187C137.814 41.6716 137.876 41.8599 138.028 41.9375C138.028 41.9375 138.538 42.2011 139.083 42.5157C139.356 42.673 139.639 42.8459 139.866 42.9987C140.091 43.1472 140.272 43.3023 140.296 43.3444C140.398 43.4839 140.592 43.5127 140.729 43.4108C140.868 43.3089 140.896 43.1139 140.795 42.9766C140.658 42.7971 140.462 42.6553 140.212 42.4825Z" fill="#695172"/>
<path d="M141.34 39.0971C140.643 38.6363 139.508 38.0204 139.504 38.0182C139.354 37.9362 139.166 37.9916 139.085 38.1444C139.003 38.2951 139.058 38.4834 139.211 38.5654C139.211 38.5654 139.711 38.8379 140.243 39.1503C140.508 39.3076 140.782 39.4738 141 39.6178C141.214 39.7552 141.388 39.9014 141.388 39.9102C141.494 40.0454 141.688 40.0698 141.823 39.9656C141.958 39.8593 141.982 39.6643 141.878 39.5292C141.75 39.3741 141.578 39.2589 141.342 39.0993L141.34 39.0971Z" fill="#695172"/>
<path d="M141.042 35.4193C140.638 35.1645 140.287 34.9806 140.283 34.9784C140.131 34.8986 139.943 34.9562 139.864 35.1091C139.784 35.262 139.842 35.4503 139.994 35.5301C139.994 35.5301 140.331 35.7073 140.711 35.9488C141.088 36.1815 141.519 36.5049 141.636 36.68C141.735 36.8195 141.929 36.8528 142.068 36.7531C142.207 36.6534 142.24 36.4584 142.141 36.3188C141.894 35.9821 141.448 35.683 141.042 35.4215V35.4193Z" fill="#695172"/>
<path d="M129.107 45.9033C129.235 45.8612 129.35 45.8058 129.469 45.7549C129.57 45.7106 129.674 45.6707 129.771 45.6197C129.934 45.5377 130.082 45.4447 130.228 45.3494C130.261 45.3273 130.296 45.3073 130.329 45.283C130.499 45.1655 130.654 45.0415 130.797 44.9107C130.003 44.3059 126.795 43.3178 124.72 45.0636C124.871 45.1766 125.038 45.2852 125.21 45.3915C125.257 45.4203 125.303 45.4469 125.349 45.4757C125.53 45.5798 125.72 45.6773 125.919 45.7637C125.954 45.7792 125.989 45.7903 126.025 45.8036C126.212 45.8789 126.406 45.9454 126.607 45.9986C126.647 46.0097 126.686 46.023 126.728 46.0318C126.951 46.085 127.183 46.1182 127.421 46.1337C127.472 46.1382 127.525 46.1382 127.576 46.1404C127.825 46.147 128.079 46.1404 128.339 46.0983C128.608 46.054 128.864 45.9875 129.107 45.9033Z" fill="#E9465B"/>
<path d="M109.538 77.3265C112.035 75.0312 113.984 70.075 115.263 66.3241C115.784 64.7865 116.334 63.9867 116.764 63.5812C117.196 63.1758 117.499 63.1514 117.609 63.1492H117.649L117.651 63.1514V63.147C117.814 63.1802 117.975 63.0827 118.015 62.9188C118.055 62.7526 117.953 62.5842 117.785 62.5444L117.607 62.5266C117.355 62.5244 116.87 62.6241 116.338 63.1293C115.804 63.6344 115.217 64.5273 114.674 66.1247C113.423 69.8424 111.435 74.7698 109.118 76.8679C108.993 76.9831 108.981 77.1803 109.098 77.3066C109.213 77.4329 109.41 77.444 109.535 77.3265H109.538Z" fill="#333044"/>
<path d="M115.636 80.6676C115.435 81.0398 115.252 81.3522 115.1 81.5871C114.95 81.8197 114.818 81.9836 114.769 82.0213C114.639 82.1321 114.623 82.3293 114.734 82.46C114.844 82.5907 115.041 82.6062 115.171 82.4954C115.316 82.3669 115.449 82.1853 115.619 81.9283C116.768 80.1492 119.195 74.8473 119.701 71.1607C120.056 68.5241 120.707 66.8159 121.261 65.7724C121.536 65.2496 121.79 64.8951 121.969 64.6713L122.179 64.4342L122.232 64.3833L122.243 64.3722C122.373 64.2614 122.388 64.0642 122.278 63.9335C122.168 63.8028 121.971 63.7873 121.841 63.8981C121.784 63.9446 119.815 65.6772 119.089 71.0765C118.82 73.0793 117.916 75.687 116.982 77.8561C116.517 78.9417 116.042 79.921 115.641 80.6654L115.636 80.6676Z" fill="#333044"/>
<path d="M123.469 86.5078C123.639 86.5167 123.787 86.386 123.796 86.2131C123.893 84.3609 124.363 78.9505 124.807 74.0143C125.029 71.5462 125.246 69.1932 125.405 67.4585C125.566 65.7237 125.669 64.6092 125.669 64.6048C125.685 64.4342 125.561 64.2813 125.389 64.2658C125.219 64.2503 125.067 64.3744 125.052 64.5472C125.052 64.5516 123.372 82.4267 123.174 86.1799C123.165 86.3505 123.295 86.4989 123.467 86.5078H123.469Z" fill="#333044"/>
<path d="M135.819 84.5338C135.985 84.4939 136.088 84.3255 136.049 84.1571C135.093 80.1868 134.076 75.2749 133.299 71.3578C132.911 69.3993 132.582 67.6889 132.351 66.4703C132.119 65.2496 131.984 64.5229 131.984 64.5206C131.953 64.3523 131.792 64.2393 131.622 64.2703C131.455 64.3013 131.342 64.463 131.373 64.6336C131.373 64.6336 133.524 76.334 135.444 84.3055C135.484 84.4717 135.651 84.5758 135.817 84.536L135.819 84.5338Z" fill="#333044"/>
<path d="M141.768 78.0599C141.768 78.0599 141.678 77.9425 141.589 77.7719C140.938 76.5423 139.482 72.4767 138.657 69.8712C136.934 64.432 135.034 63.4616 134.934 63.4151C134.78 63.342 134.595 63.4084 134.522 63.5635C134.449 63.7164 134.515 63.9003 134.667 63.9756C134.683 63.9845 136.426 64.8862 138.068 70.0595C138.553 71.5883 139.244 73.5933 139.873 75.2617C140.186 76.0969 140.486 76.8458 140.738 77.4152C140.863 77.6988 140.978 77.9381 141.08 78.1242C141.19 78.3125 141.249 78.4365 141.4 78.5562C141.539 78.6559 141.733 78.6249 141.832 78.4853C141.929 78.3501 141.898 78.164 141.768 78.0621H141.77L141.768 78.0599Z" fill="#333044"/>
<path d="M145.267 75.2484C144.129 73.6864 141.757 70.208 141.055 67.7642C139.645 62.8922 138.438 61.8708 138.363 61.8066C138.231 61.698 138.035 61.7202 137.926 61.8531C137.818 61.986 137.84 62.1832 137.973 62.2918C138.043 62.3538 139.155 63.4328 140.457 67.937C141.472 71.4177 145.389 76.4448 145.395 76.4625C145.501 76.5976 145.695 76.622 145.83 76.5179C145.965 76.4137 145.989 76.2166 145.885 76.0814C145.885 76.0814 145.645 75.7712 145.265 75.2484H145.267Z" fill="#333044"/>
<path d="M138.321 85.287C134.544 87.5691 130.93 88.4597 127.565 88.4619C121.329 88.4619 115.925 85.3801 112.082 82.2783C110.16 80.7274 108.628 79.1765 107.58 78.0134C107.055 77.4329 106.651 76.9477 106.38 76.6109C106.109 76.2719 105.97 76.0858 105.97 76.0836C105.868 75.9463 105.674 75.9152 105.537 76.0172C105.4 76.1191 105.369 76.314 105.471 76.4514C105.497 76.4669 114.672 89.0601 127.565 89.0845C131.04 89.0845 134.776 88.1584 138.641 85.821C138.787 85.7324 138.836 85.5418 138.747 85.3934C138.659 85.2472 138.469 85.1984 138.321 85.287Z" fill="#333044"/>
<path d="M41.8883 137.419C44.9929 140.829 51.4447 148.397 53.2606 153.892C54.7721 158.438 55.8731 162.592 55.8687 164.876C55.8687 165.342 55.8224 165.725 55.7363 166.004C55.6856 166.168 55.7783 166.343 55.9415 166.394C56.1048 166.445 56.2791 166.352 56.3299 166.188C56.4424 165.82 56.4888 165.384 56.4888 164.879C56.4843 162.424 55.3656 158.276 53.8476 153.697C52.5788 149.886 49.2779 145.278 46.2947 141.593C43.3093 137.913 40.6394 135.173 40.635 135.168C40.5997 135.133 40.5512 135.128 40.5048 135.113C40.3989 135.077 40.282 135.079 40.1959 135.164C40.1452 135.212 40.1297 135.279 40.1209 135.343C40.1077 135.436 40.1209 135.531 40.1915 135.605C40.1915 135.605 40.8535 136.285 41.8883 137.424V137.419Z" fill="#333044"/>
<path d="M179.748 143.778C179.748 143.762 188.733 115.638 188.738 99.265C188.738 98.5316 188.72 97.8227 188.683 97.1403C188.674 96.9697 188.526 96.8367 188.356 96.8478C188.186 96.8567 188.054 97.0051 188.065 97.1757C188.102 97.8448 188.12 98.5427 188.12 99.265C188.12 107.35 185.883 118.445 183.641 127.502C182.52 132.031 181.399 136.054 180.558 138.943C180.139 140.388 179.788 141.549 179.543 142.349C179.298 143.149 179.159 143.585 179.159 143.587C179.106 143.751 179.197 143.926 179.36 143.979C179.384 143.988 179.406 143.973 179.431 143.973C179.453 143.973 179.475 143.973 179.497 143.968C179.609 143.951 179.713 143.895 179.748 143.778Z" fill="#333044"/>
</g>
</g>
<g clip-path="url(#clip2_180_4751)">
<path d="M194.345 92.1538C189.753 88.6289 176.392 85.6202 176.392 85.6202V85.6246C163.968 80.8035 154.568 78.2822 147.873 76.9861C147.873 76.9861 143.167 71.1769 142.07 67.827C140.974 64.4771 140.801 61.136 138.749 61.0585C138.749 61.0585 137.346 62.0156 134.645 62.7689C133.207 63.1699 131.413 63.5156 129.233 63.6219C125.486 63.8058 120.658 63.2918 114.796 61.1826C114.796 61.1826 112.534 61.1117 111.515 65.9416C110.493 70.7737 104.754 76.4544 104.754 76.4566C98.4454 78.331 81.9761 83.1919 76.9431 84.3794C76.9431 84.3794 64.0372 87.674 59.0042 90.5298C55.2509 92.6612 41.6875 132.605 40.5026 136.11C40.5468 136.126 40.5953 136.13 40.6328 136.166C40.6372 136.17 43.3071 138.911 46.2925 142.591C49.2779 146.275 52.5766 150.884 53.8454 154.695C55.3612 159.272 56.4821 163.422 56.4865 165.876C56.4865 166.382 56.4402 166.818 56.3277 167.186C56.2769 167.35 56.1048 167.443 55.9393 167.392C55.7761 167.341 55.6834 167.168 55.7341 167.002C55.8202 166.723 55.8665 166.339 55.8665 165.874C55.8709 163.592 54.7699 159.436 53.2584 154.889C51.4425 149.395 44.9929 141.827 41.8861 138.417C40.8513 137.278 40.1915 136.6 40.1893 136.598C40.1187 136.525 40.1033 136.429 40.1187 136.336C34.3487 135.441 30.7587 120.096 28.1771 117.504C27.3298 116.653 26.5332 116.328 25.9573 116.206C24.9666 113.363 23.0271 108.155 22.182 108.385C22.1511 108.394 22.1026 108.407 22.0496 108.423C20.1432 108.979 4.6359 113.902 4.19459 114.225C4.13723 114.267 4.07986 114.312 4.02469 114.36C3.64076 114.69 3.33185 115.211 3.52161 116.682C3.65841 117.735 4.73519 120.646 5.52291 122.682C4.60942 124.195 5.86271 125.633 5.86271 125.633C16.8004 164.95 24.02 184.024 44.1456 183.641C64.1983 183.257 72.7948 146.058 72.7948 146.058C73.8892 143.863 75.2109 134.254 75.2109 134.254V134.249C76.2061 163.998 77.7484 198.961 79.5489 208.654H173.718C174.294 206.966 177.085 174.617 179.429 144.973C179.404 144.973 179.382 144.986 179.358 144.979C179.195 144.926 179.104 144.751 179.157 144.587C179.157 144.587 179.296 144.151 179.541 143.349C179.786 142.549 180.137 141.388 180.556 139.943C181.397 137.054 182.518 133.031 183.639 128.502C185.88 119.445 188.118 108.35 188.118 100.265C188.118 99.5427 188.1 98.8448 188.063 98.1757C188.054 98.0051 188.184 97.8567 188.354 97.8478C188.524 97.8389 188.672 97.9697 188.68 98.1403C188.718 98.8226 188.736 99.5316 188.736 100.265C188.729 116.638 179.749 144.76 179.746 144.778C179.709 144.893 179.607 144.951 179.495 144.968C183.12 169.222 192.849 234.171 194.206 241.666C194.263 241.981 194.711 242.242 195.439 242.455C195.536 245.947 195.933 252.308 197.553 252.389C199.631 252.496 214.212 251.645 216.204 251.528C216.352 251.519 216.436 251.514 216.436 251.514C216.436 251.514 218.049 251.514 218.159 249.319C218.245 247.588 218.197 242.951 218.17 241.052C218.607 240.798 218.896 240.519 218.998 240.217C218.998 240.217 217.239 109.728 194.342 92.156L194.345 92.1538Z" fill="#DFFFDF"/>
<path d="M127.443 57.8149C127.443 57.8149 133.227 58.473 137.743 52.2672C140.04 49.11 142 44.1582 142.71 36.4525C142.776 35.7436 142.829 35.0124 142.873 34.2547C142.917 33.5014 142.951 32.7304 142.97 31.9284C143.01 30.3708 143.012 28.7358 142.955 26.9855C142.964 26.9611 142.975 26.9345 142.984 26.9101C144.098 24.0366 145.404 19.1092 144.917 14.5784C144.917 14.5784 143.838 11.5032 142.099 11.3193C142.099 11.3193 142.911 7.40217 141.088 5.4259C139.266 3.44962 130.479 -0.467483 124.427 0.0443105C118.375 0.556104 113.293 5.69841 112.869 6.56026C112.135 8.06019 112.98 10.6613 112.98 10.6613C112.98 10.6613 110.572 12.8945 109.99 14.5784C109.407 16.2622 111.137 26.8946 111.398 27.1494V27.1539C111.402 27.1782 111.746 28.8222 112.139 29.6043H112.135C112.135 29.6043 112.165 30.6411 112.315 32.3205C112.366 32.8833 112.43 33.5169 112.512 34.2104C112.589 34.8618 112.68 35.5641 112.79 36.3085C113.35 40.106 114.381 44.9293 116.263 49.1676C116.541 49.7946 116.837 50.4105 117.154 51.0087C121.084 58.3954 127.448 57.8171 127.448 57.8171L127.443 57.8149Z" fill="#201823"/>
<path d="M22.0518 108.425C21.3656 106.378 20.7852 104.528 20.3484 103.006C20.494 101.86 21.0522 97.4955 21.178 96.8597C21.3236 96.1285 20.9596 95.1027 19.7923 95.0296C18.6361 94.9565 16.0391 99.3057 15.9883 99.3876C15.8471 99.2281 11.8555 90.7204 10.4478 91.3297C9.71962 91.6465 9.98882 94.1545 11.4473 97.5354C10.5802 95.7497 8.75759 91.8237 7.44251 92.5128C6.13185 93.1996 7.15787 96.7755 8.26995 99.6424C8.26995 99.6424 5.78763 94.4846 5.02639 94.0969C4.26514 93.7092 3.68263 93.605 3.39799 94.7438C3.11335 95.8848 4.82339 102.08 4.82339 102.08C4.82339 102.08 2.43816 95.2224 0.856095 95.7364C-0.222886 96.0864 -0.851739 99.6889 2.55069 108.35C2.86622 109.557 3.35827 111.646 4.02464 114.363C4.0798 114.314 4.13717 114.27 4.19454 114.227C4.63584 113.904 20.1454 108.981 22.0496 108.425H22.0518Z" fill="#F6B17A"/>
<path d="M129.235 63.6219C124.103 62.4233 118.975 56.4723 116.009 52.44C116.02 52.3159 116.029 52.1963 116.04 52.0744C115.795 54.8882 115.407 58.0653 114.798 61.1848C120.661 63.294 125.488 63.8058 129.235 63.6241V63.6219Z" fill="#F6B17A"/>
<path d="M138.361 58.5505L138.354 58.5571C138.354 58.5571 138.354 58.5727 138.357 58.5815L138.361 58.6192C137.207 60.6132 135.954 61.9447 134.645 62.7711C137.346 62.0178 138.749 61.0607 138.749 61.0607C138.608 60.2676 138.478 59.4234 138.359 58.5527L138.361 58.5505Z" fill="#F6B17A"/>
<path d="M129.235 63.6219C131.415 63.5156 133.209 63.1699 134.647 62.7689C135.956 61.9425 137.209 60.611 138.363 58.617L138.359 58.5793C138.337 58.422 138.317 58.2536 138.297 58.0941C138.266 57.8615 138.235 57.6266 138.207 57.3873C138.196 57.2987 138.182 57.2145 138.173 57.1237L138.147 56.9021C138.127 56.7249 138.109 56.5366 138.09 56.3549C138.063 56.109 138.037 55.8652 138.01 55.6149C138.004 55.5462 137.995 55.4819 137.988 55.4133L137.962 55.1341C137.944 54.9347 137.929 54.7264 137.911 54.5248C137.889 54.2723 137.867 54.0197 137.847 53.7627C137.842 53.7073 137.838 53.6563 137.834 53.6009L137.809 53.2753C137.792 53.0382 137.778 52.79 137.763 52.5486C137.756 52.4533 137.75 52.358 137.745 52.2605C133.231 58.4685 127.445 57.8083 127.445 57.8083C127.445 57.8083 121.082 58.3865 117.152 50.9999C116.834 50.4039 116.539 49.788 116.261 49.1588C116.254 49.2651 116.247 49.3692 116.241 49.4778C116.221 49.8035 116.197 50.1358 116.172 50.4748C116.164 50.5878 116.155 50.7074 116.146 50.8226C116.126 51.0752 116.106 51.3278 116.086 51.587C116.073 51.7443 116.06 51.906 116.044 52.0656C116.033 52.1874 116.025 52.3071 116.014 52.4311C118.979 56.4634 124.107 62.4144 129.239 63.613L129.235 63.6219Z" fill="#F08251"/>
<path d="M142.968 31.9284C143.068 31.5983 143.182 31.2748 143.308 30.9602C143.308 30.958 143.308 30.9535 143.308 30.9513C143.31 30.9424 143.317 30.9358 143.321 30.9269C143.46 30.5813 143.606 30.2468 143.754 29.9366C144.303 28.7934 144.848 27.9625 144.855 27.9559C144.95 27.8119 145.142 27.7742 145.285 27.8673C145.428 27.9625 145.466 28.1553 145.373 28.2993C145.373 28.2993 145.243 28.4965 145.045 28.8355C144.855 29.1589 144.603 29.6175 144.35 30.1382C144.612 30.074 144.877 30.0429 145.12 30.0429C145.596 30.0429 145.978 30.1183 145.989 30.1205C146.157 30.1537 146.267 30.3154 146.234 30.486C146.201 30.6544 146.04 30.7652 145.87 30.732C145.87 30.732 145.79 30.7165 145.654 30.701C145.517 30.6832 145.325 30.6677 145.117 30.6677C144.846 30.6677 144.546 30.6987 144.321 30.7829C144.096 30.8693 143.963 30.9801 143.899 31.1507C143.542 32.0458 143.262 33.0206 143.264 33.847V33.9711C143.273 34.1439 143.138 34.2879 142.968 34.2924C142.933 34.2924 142.909 34.268 142.876 34.2569C142.831 35.0146 142.778 35.7458 142.712 36.4548C147.655 36.2221 147.467 27.1339 145.782 26.2876C144.804 25.7957 143.827 26.2078 142.986 26.9124C142.977 26.9367 142.966 26.9633 142.957 26.9877C143.015 28.738 143.012 30.3731 142.973 31.9306L142.968 31.9284Z" fill="#F6B17A"/>
<path d="M112.424 34.556C112.368 34.7178 112.194 34.8064 112.031 34.751C111.87 34.6956 111.782 34.5206 111.837 34.3566C111.914 34.1284 111.949 33.8914 111.949 33.6454C111.956 32.6883 111.376 31.5983 110.678 30.6677C110.164 30.4041 109.793 30.3221 109.549 30.3221C109.109 30.3287 109.01 30.5414 108.988 30.5614H108.986C108.911 30.7098 108.732 30.7763 108.58 30.7054C108.425 30.6323 108.357 30.4484 108.43 30.2911C108.443 30.2379 108.754 29.6929 109.549 29.6995C109.661 29.6995 109.785 29.7128 109.915 29.7372C109.385 29.1523 108.893 28.6981 108.659 28.4921L108.514 28.368C108.381 28.2594 108.361 28.0622 108.472 27.9293C108.58 27.7964 108.776 27.7764 108.909 27.8872C108.917 27.8939 109.816 28.6361 110.722 29.715C111.342 30.4595 111.974 31.3612 112.313 32.3205C112.163 30.6411 112.132 29.6065 112.132 29.6065H112.137C111.744 28.8222 111.402 27.1782 111.395 27.1539C110.497 26.3075 109.416 25.7381 108.333 26.2831C106.501 27.2004 106.437 37.8395 112.788 36.3041C112.677 35.5619 112.587 34.8596 112.51 34.206C112.488 34.3212 112.463 34.4386 112.426 34.5516L112.424 34.556Z" fill="#F6B17A"/>
<path d="M116.439 15.531C116.322 16.9579 116.329 19.7783 115.18 22.1977C114.511 23.6045 114.248 26.7595 114.056 28.461C114.176 30.4816 115.131 39.0447 118.743 44.9248C118.992 42.563 120.588 39.2707 127.567 39.2907C134.383 39.3106 135.685 43.1059 135.771 45.7224C140.329 38.8409 140.839 27.1915 140.839 27.1915C140.184 24.4575 139.528 20.002 139.773 18.8987C140.137 17.2503 138.897 14.5784 137.624 13.6633C136.349 12.7483 131.812 14.4654 128.897 14.3923C125.98 14.3191 122.227 12.3805 119.976 12.3451C117.726 12.3074 116.556 14.102 116.439 15.531Z" fill="#F6B17A"/>
<path d="M133.846 48.0576C134.288 40.9811 127.567 41.5971 127.567 41.5971C127.567 41.5971 120.844 40.8504 120.596 47.3996C122.529 49.4955 125.009 50.8271 128.189 50.641C130.455 50.508 132.315 49.5332 133.846 48.0598V48.0576Z" fill="#F6B17A"/>
<path d="M130.797 45.9107C131.596 45.1863 131.995 44.3089 131.768 43.7262C131.768 43.7262 131.439 43.1657 129.588 43.7262C127.739 44.289 124.906 43.5999 124.109 43.4781C123.313 43.354 123.044 44.1959 123.578 44.947C123.778 45.2306 124.178 45.6604 124.721 46.0658C126.795 44.3222 130.003 45.3103 130.797 45.913V45.9107Z" fill="#201823"/>
<path d="M143.264 33.9667V33.8426C143.259 33.0162 143.54 32.0414 143.897 31.1463C143.961 30.9757 144.094 30.8649 144.319 30.7785C144.544 30.6943 144.844 30.6633 145.115 30.6633C145.32 30.6633 145.512 30.6788 145.651 30.6965C145.79 30.7143 145.868 30.7298 145.868 30.7275C146.035 30.7608 146.199 30.65 146.232 30.4816C146.265 30.3132 146.154 30.1493 145.987 30.1161C145.976 30.1161 145.594 30.0407 145.117 30.0385C144.875 30.0385 144.61 30.0717 144.347 30.1338C144.601 29.6131 144.853 29.1545 145.042 28.831C145.241 28.4921 145.371 28.2949 145.371 28.2949C145.466 28.1509 145.426 27.9581 145.283 27.8628C145.139 27.7676 144.947 27.8074 144.853 27.9515C144.848 27.9581 144.301 28.7889 143.751 29.9322C143.604 30.2423 143.458 30.5769 143.319 30.9225C143.315 30.9314 143.31 30.938 143.306 30.9469C143.306 30.9491 143.306 30.9535 143.306 30.9558C143.18 31.2704 143.065 31.5938 142.966 31.9239C142.946 32.7238 142.913 33.497 142.869 34.2503C142.902 34.2614 142.926 34.2857 142.962 34.2857C143.131 34.2791 143.266 34.1351 143.259 33.9645L143.264 33.9667Z" fill="#DB8252"/>
<path d="M108.906 27.8872C108.774 27.7786 108.58 27.7964 108.47 27.9293C108.361 28.0622 108.379 28.2572 108.511 28.368L108.657 28.492C108.891 28.6981 109.383 29.1523 109.913 29.7372C109.782 29.715 109.659 29.6995 109.546 29.6995C108.752 29.6951 108.443 30.2379 108.428 30.2911C108.355 30.4462 108.421 30.6323 108.578 30.7054C108.73 30.7763 108.909 30.7098 108.984 30.5614H108.986C109.008 30.5414 109.107 30.3287 109.546 30.3221C109.791 30.3221 110.162 30.4041 110.676 30.6677C111.376 31.6005 111.954 32.6905 111.947 33.6454C111.947 33.8914 111.912 34.1262 111.834 34.3566C111.779 34.5184 111.868 34.6956 112.029 34.751C112.192 34.8064 112.366 34.7178 112.421 34.556C112.459 34.4408 112.483 34.3256 112.505 34.2104C112.424 33.5169 112.36 32.8833 112.309 32.3205C111.969 31.3612 111.34 30.4595 110.718 29.715C109.811 28.6361 108.913 27.8938 108.904 27.8872H108.906Z" fill="#DB8252"/>
<path d="M128.216 38.9096C128.216 38.9096 128.811 38.8608 129.462 38.7213C129.789 38.6504 130.131 38.5595 130.433 38.431C130.733 38.3003 131.007 38.1474 131.174 37.8683C131.265 37.6977 131.267 37.5515 131.272 37.3676C131.267 36.5101 130.868 34.7665 130.471 33.1824C130.073 31.6071 129.676 30.2313 129.676 30.229C129.628 30.0651 129.458 29.9698 129.292 30.0163C129.129 30.0651 129.034 30.2357 129.08 30.4019C129.08 30.4041 129.475 31.7733 129.87 33.3352C130.265 34.8906 130.658 36.6719 130.654 37.3676L130.645 37.5293L130.638 37.5603C130.603 37.629 130.44 37.7597 130.197 37.8594C129.828 38.0167 129.314 38.1297 128.9 38.1962C128.485 38.2649 128.171 38.2892 128.171 38.2892C128.001 38.3025 127.874 38.4532 127.889 38.6238C127.902 38.7944 128.052 38.9229 128.222 38.9074L128.216 38.9096Z" fill="#DB8252"/>
<path d="M117.39 26.6066C117.046 27.0121 117.673 27.5615 118.026 27.1605C119.147 25.9065 120.985 25.4745 122.505 26.1037C122.84 26.2676 123.255 26.097 123.37 25.7403C123.478 25.4124 123.302 25.0602 122.975 24.9538C120.976 24.2603 118.664 24.9605 117.39 26.6066Z" fill="#201823"/>
<path d="M132.79 26.1192C133.489 25.8223 134.422 25.7293 135.188 25.9131C135.989 26.0815 136.719 26.5446 137.311 27.1671C137.461 27.3245 137.71 27.3422 137.88 27.2004C138.059 27.0519 138.085 26.7861 137.937 26.6044C136.664 24.9582 134.352 24.2581 132.353 24.9516C131.554 25.2241 132.009 26.436 132.787 26.1192H132.79Z" fill="#201823"/>
<path d="M120.751 37.1615C122.261 37.1615 123.485 36.3729 123.485 35.4002C123.485 34.4274 122.261 33.6388 120.751 33.6388C119.241 33.6388 118.017 34.4274 118.017 35.4002C118.017 36.3729 119.241 37.1615 120.751 37.1615Z" fill="#F29174"/>
<path d="M135.746 32.9431C134.237 32.9431 133.012 33.7318 133.012 34.7045C133.012 35.6771 134.237 36.4658 135.746 36.4658C137.256 36.4658 138.48 35.6771 138.48 34.7045C138.48 33.7318 137.256 32.9431 135.746 32.9431Z" fill="#F29174"/>
<path d="M73.5892 116.642C71.771 108.013 68.2715 97.9985 61.3894 92.4862C61.2548 92.3798 61.0607 92.402 60.9547 92.5349C60.8488 92.6701 60.8709 92.865 61.0033 92.9714C67.6846 98.302 71.1863 108.197 72.9824 116.769C73.8827 121.054 74.3615 125.002 74.613 127.88C74.7388 129.318 74.8094 130.487 74.8491 131.298C74.8866 132.109 74.8932 132.552 74.8954 132.554C74.8976 132.727 75.0389 132.862 75.211 132.86C75.3831 132.858 75.5177 132.716 75.5155 132.543C75.5155 132.53 75.4029 125.27 73.5914 116.64L73.5892 116.642Z" fill="#707070"/>
<path d="M135.802 12.8369C135.806 12.8192 138.332 7.95163 138.789 4.9429C138.816 4.7723 138.699 4.615 138.529 4.58841C138.359 4.56183 138.202 4.67925 138.176 4.84985C137.968 6.24786 137.238 8.18869 136.556 9.76174C136.216 10.5483 135.89 11.2484 135.647 11.7491C135.404 12.2498 135.25 12.5489 135.25 12.5511C135.17 12.704 135.23 12.8923 135.382 12.9699C135.535 13.0496 135.722 12.9898 135.799 12.8369H135.802Z" fill="#695172"/>
<path d="M131.907 13.7121C132.075 13.7475 132.238 13.639 132.273 13.4706C132.273 13.4706 132.726 11.2993 133.185 8.8733C133.644 6.44062 134.109 3.77974 134.14 2.70741C134.145 2.53459 134.01 2.3928 133.838 2.38837C133.666 2.38393 133.524 2.51908 133.52 2.6919C133.498 3.65123 133.032 6.34535 132.576 8.75809C132.119 11.1775 131.667 13.3399 131.667 13.3443C131.631 13.5127 131.739 13.6766 131.907 13.7121Z" fill="#695172"/>
<path d="M128.189 13.7187C128.361 13.7187 128.498 13.5791 128.498 13.4085V1.21634C128.498 1.04352 128.359 0.906158 128.189 0.906158C128.019 0.906158 127.88 1.04574 127.88 1.21634V13.4063C127.88 13.5791 128.019 13.7165 128.189 13.7165V13.7187Z" fill="#695172"/>
<path d="M125.555 12.9676C125.705 12.8857 125.762 12.6973 125.68 12.5467C125.68 12.5467 125.471 12.159 125.149 11.4965C124.18 9.51581 122.203 5.0847 121.887 1.62843C121.872 1.45783 121.72 1.33154 121.55 1.34705C121.38 1.36256 121.254 1.51544 121.269 1.68603C121.724 6.51594 125.129 12.8236 125.133 12.8436C125.215 12.9942 125.402 13.0518 125.552 12.9699L125.555 12.9676Z" fill="#695172"/>
<path d="M120.497 11.8842C120.594 12.0238 120.789 12.0593 120.93 11.9596C121.069 11.8599 121.104 11.6671 121.005 11.5253C121.005 11.5231 120.038 10.1428 119.012 8.56756C118.498 7.78103 117.971 6.94577 117.543 6.21685C117.115 5.49015 116.784 4.85429 116.68 4.52417C116.627 4.36022 116.453 4.27159 116.289 4.32255C116.126 4.37573 116.038 4.55075 116.089 4.71471C116.23 5.15339 116.57 5.78703 117.007 6.53368C118.315 8.76031 120.495 11.8798 120.497 11.882V11.8842Z" fill="#695172"/>
<path d="M116.912 12.6198C117.022 12.7505 117.216 12.7682 117.349 12.6597C117.479 12.5489 117.496 12.3539 117.388 12.221C117.388 12.221 117.201 11.995 116.912 11.6295C116.479 11.08 115.826 10.2181 115.263 9.35407C114.701 8.49887 114.235 7.61043 114.176 7.13187C114.151 6.96127 113.995 6.84385 113.825 6.86822C113.655 6.89259 113.538 7.0499 113.562 7.22049C113.633 7.69019 113.88 8.22857 114.206 8.81126C115.184 10.546 116.907 12.6132 116.914 12.622L116.912 12.6198Z" fill="#695172"/>
<path d="M111.64 16.0628C112.388 15.8235 113.439 15.6485 114.293 15.5377C115.146 15.4269 115.804 15.3804 115.806 15.3804C115.976 15.3671 116.106 15.2187 116.093 15.0481C116.08 14.8775 115.932 14.749 115.762 14.76C115.758 14.76 114.564 14.8464 113.293 15.0569C112.657 15.161 112 15.2962 111.453 15.4712C110.908 15.6573 110.462 15.8346 110.217 16.2201C110.131 16.3685 110.182 16.5591 110.33 16.6455C110.477 16.7319 110.667 16.6809 110.753 16.5325C110.786 16.4394 111.142 16.2134 111.64 16.065V16.0628Z" fill="#695172"/>
<path d="M113.615 19.0915C114.134 18.8743 114.632 18.6949 114.999 18.5708C115.365 18.4445 115.597 18.3758 115.599 18.3758C115.762 18.3271 115.855 18.1521 115.806 17.9881C115.758 17.8242 115.583 17.7311 115.42 17.7798C115.42 17.7798 114.449 18.0723 113.377 18.5176C112.302 18.9762 111.131 19.5346 110.63 20.2679C110.535 20.4119 110.575 20.6047 110.718 20.6999C110.861 20.7952 111.053 20.7553 111.148 20.6113C111.442 20.135 112.58 19.5146 113.615 19.0937V19.0915Z" fill="#695172"/>
<path d="M112.468 23.9125C112.958 23.4716 113.589 22.9665 114.094 22.5721C114.599 22.1777 114.981 21.8963 114.981 21.8963C115.118 21.7944 115.149 21.5995 115.047 21.4621C114.946 21.3247 114.751 21.2937 114.615 21.3956C114.615 21.3956 113.928 21.903 113.172 22.5101C112.792 22.8136 112.397 23.1415 112.057 23.4472C111.715 23.7552 111.435 24.0277 111.265 24.2648C111.166 24.4044 111.199 24.5993 111.338 24.699C111.477 24.7987 111.671 24.7655 111.771 24.6259C111.876 24.473 112.143 24.2027 112.47 23.9125H112.468Z" fill="#695172"/>
<path d="M114.098 25.0491C113.984 24.9228 113.787 24.9117 113.661 25.0269C113.659 25.0291 113.306 25.3504 112.907 25.7603C112.505 26.1746 112.066 26.6509 111.856 27.0497C111.777 27.2026 111.837 27.3909 111.989 27.4685C112.141 27.5482 112.329 27.4884 112.406 27.3355C112.536 27.0763 112.964 26.5845 113.348 26.1967C113.734 25.8024 114.076 25.49 114.076 25.49C114.202 25.3748 114.213 25.1776 114.098 25.0513V25.0491Z" fill="#695172"/>
<path d="M138.443 13.6367C138.447 13.8096 138.591 13.9447 138.76 13.9381C138.76 13.9381 138.855 13.9358 139.023 13.9358C139.469 13.9358 140.415 13.9558 141.384 14.0932C142.353 14.2261 143.343 14.4986 143.833 14.9107C143.966 15.0193 144.16 15.0015 144.27 14.8686C144.378 14.7357 144.361 14.5407 144.228 14.4299C143.546 13.876 142.489 13.6235 141.472 13.475C140.457 13.331 139.486 13.3133 139.025 13.3133C138.849 13.3133 138.747 13.3155 138.745 13.3155C138.573 13.3199 138.438 13.4639 138.445 13.6345L138.443 13.6367Z" fill="#695172"/>
<path d="M142.099 16.8715C141.322 16.5192 140.658 16.2688 140.654 16.2688C140.493 16.209 140.314 16.291 140.254 16.4505C140.195 16.6122 140.276 16.7917 140.435 16.8515C140.435 16.8515 141.086 17.0952 141.841 17.4386C142.593 17.7776 143.458 18.234 143.816 18.5774C143.939 18.6949 144.135 18.6904 144.255 18.5641C144.372 18.4401 144.367 18.2429 144.241 18.1233C143.752 17.6668 142.876 17.2282 142.097 16.8692L142.099 16.8715Z" fill="#695172"/>
<path d="M140.727 19.6343C140.587 19.5346 140.393 19.5678 140.294 19.7074C140.195 19.847 140.228 20.0419 140.367 20.1416C140.367 20.1416 140.96 20.567 141.64 21.0611C142.317 21.5551 143.083 22.1179 143.407 22.3815C143.54 22.4901 143.736 22.468 143.844 22.335C143.952 22.2021 143.93 22.0049 143.798 21.8963C143.105 21.3358 140.733 19.6365 140.731 19.6343H140.727Z" fill="#695172"/>
<path d="M142.031 24.1739C141.803 23.9546 141.569 23.7308 141.377 23.5536L141.121 23.3254L140.916 23.1769C140.764 23.0994 140.576 23.1614 140.501 23.3165C140.426 23.4672 140.488 23.6466 140.634 23.7264C140.669 23.7508 140.832 23.8903 141.016 24.0609C141.58 24.5838 142.474 25.4745 142.476 25.4745C142.598 25.5963 142.794 25.5941 142.915 25.4745C143.037 25.3526 143.034 25.1554 142.915 25.0336C142.915 25.0336 142.489 24.6104 142.037 24.1717L142.031 24.1739Z" fill="#695172"/>
<path d="M117.582 43.7063L117.644 43.5623C117.699 43.3983 117.611 43.2233 117.448 43.1679C117.289 43.1147 117.119 43.2011 117.062 43.3584H117.06C117.031 43.4271 116.804 43.888 116.539 44.4374C116.272 44.9913 115.956 45.6537 115.725 46.1966C115.656 46.3539 115.729 46.5378 115.886 46.6064C116.042 46.6751 116.225 46.602 116.294 46.4425C116.526 45.9019 116.85 45.2173 117.121 44.6567C117.256 44.3754 117.379 44.125 117.47 43.9389L117.58 43.7063H117.582Z" fill="#695172"/>
<path d="M119.125 46.1633C119.12 46.1788 117.777 48.4586 117.415 49.9453C117.375 50.1114 117.477 50.2798 117.642 50.3219C117.807 50.3618 117.975 50.2599 118.017 50.0937C118.172 49.4423 118.584 48.5251 118.957 47.7873C119.33 47.0473 119.659 46.4824 119.659 46.4801C119.745 46.3317 119.696 46.1412 119.548 46.0548C119.401 45.9683 119.211 46.0171 119.125 46.1655V46.1633Z" fill="#695172"/>
<path d="M121.768 49.1299C121.768 49.1299 121.28 49.9874 120.793 51.0265C120.307 52.0744 119.809 53.2642 119.8 54.0928L119.813 54.3077C119.837 54.4783 119.994 54.5957 120.164 54.5714C120.334 54.547 120.451 54.3897 120.427 54.2191L120.418 54.0928C120.409 53.5101 120.872 52.2982 121.351 51.2923C121.589 50.785 121.828 50.3219 122.006 49.9829C122.185 49.6462 122.302 49.4379 122.302 49.4379C122.386 49.2895 122.335 49.0989 122.185 49.0125C122.037 48.9283 121.848 48.9793 121.762 49.1299H121.768Z" fill="#695172"/>
<path d="M125.153 50.5213C124.987 50.4814 124.82 50.5834 124.778 50.7495C124.778 50.7495 124.524 51.7931 124.268 52.9806C124.012 54.1748 123.754 55.4864 123.747 56.1311C123.747 56.3039 123.884 56.4435 124.056 56.4435C124.228 56.4435 124.367 56.3061 124.367 56.1333C124.367 55.626 124.619 54.2833 124.873 53.1113C125.126 51.9326 125.378 50.9002 125.378 50.898C125.418 50.7318 125.316 50.5634 125.151 50.5213H125.153Z" fill="#695172"/>
<path d="M128.202 50.8404C128.032 50.8337 127.887 50.9667 127.878 51.1372L127.613 57.1414C127.607 57.312 127.739 57.4582 127.909 57.4671C128.081 57.4737 128.224 57.3408 128.233 57.1702L128.498 51.1661C128.505 50.9932 128.372 50.8492 128.202 50.8404Z" fill="#695172"/>
<path d="M131.662 51.9924C131.494 51.6224 131.342 51.2968 131.225 51.0619C131.166 50.9445 131.115 50.847 131.075 50.7739L131.016 50.6764L130.976 50.6254C130.952 50.6055 130.947 50.5745 130.83 50.528C130.667 50.4726 130.493 50.5612 130.437 50.7251C130.4 50.8359 130.444 50.9378 130.517 51.0176L130.501 51.0287C130.535 51.073 130.691 51.3743 130.872 51.762C131.15 52.3514 131.516 53.1888 131.812 53.9643C132.108 54.7287 132.326 55.4709 132.32 55.7279V55.7522C132.311 55.9251 132.441 56.0691 132.613 56.0779C132.783 56.0868 132.929 55.9539 132.937 55.7833V55.7279C132.935 55.3911 132.814 54.9591 132.642 54.4384C132.381 53.6652 131.995 52.7391 131.662 51.9969V51.9924Z" fill="#695172"/>
<path d="M136.693 45.5075C136.547 45.4167 136.358 45.461 136.265 45.605C136.174 45.7512 136.219 45.9418 136.362 46.0348C136.362 46.0348 136.51 46.1279 136.737 46.283C137.079 46.5156 137.598 46.8856 138.039 47.2689C138.26 47.4594 138.458 47.6544 138.606 47.8294C138.754 48.0022 138.838 48.1618 138.851 48.2349C138.886 48.4032 139.052 48.5096 139.219 48.4741C139.387 48.4387 139.493 48.2725 139.458 48.1041C139.381 47.774 139.16 47.5015 138.891 47.2157C138.081 46.376 136.704 45.5164 136.695 45.5075H136.693Z" fill="#695172"/>
<path d="M140.212 43.4825C139.471 42.9818 138.315 42.3858 138.31 42.3836C138.158 42.306 137.97 42.3659 137.893 42.5187C137.814 42.6716 137.876 42.8599 138.028 42.9375C138.028 42.9375 138.538 43.2011 139.083 43.5157C139.356 43.673 139.639 43.8459 139.866 43.9987C140.091 44.1472 140.272 44.3023 140.296 44.3444C140.398 44.4839 140.592 44.5127 140.729 44.4108C140.868 44.3089 140.896 44.1139 140.795 43.9766C140.658 43.7971 140.462 43.6553 140.212 43.4825Z" fill="#695172"/>
<path d="M141.34 40.0971C140.643 39.6363 139.508 39.0204 139.504 39.0182C139.354 38.9362 139.166 38.9916 139.085 39.1444C139.003 39.2951 139.058 39.4834 139.211 39.5654C139.211 39.5654 139.711 39.8379 140.243 40.1503C140.508 40.3076 140.782 40.4738 141 40.6178C141.214 40.7552 141.388 40.9014 141.388 40.9102C141.494 41.0454 141.688 41.0698 141.823 40.9656C141.958 40.8593 141.982 40.6643 141.878 40.5292C141.75 40.3741 141.578 40.2589 141.342 40.0993L141.34 40.0971Z" fill="#695172"/>
<path d="M141.042 36.4193C140.638 36.1645 140.287 35.9806 140.283 35.9784C140.131 35.8986 139.943 35.9562 139.864 36.1091C139.784 36.262 139.842 36.4503 139.994 36.5301C139.994 36.5301 140.331 36.7073 140.711 36.9488C141.088 37.1815 141.519 37.5049 141.636 37.68C141.735 37.8195 141.929 37.8528 142.068 37.7531C142.207 37.6534 142.24 37.4584 142.141 37.3188C141.894 36.9821 141.448 36.683 141.042 36.4215V36.4193Z" fill="#695172"/>
<path d="M142.264 33.8404C141.755 33.3463 140.954 32.7016 140.951 32.6994C140.819 32.5908 140.623 32.613 140.517 32.7481C140.409 32.8811 140.431 33.0782 140.565 33.1846C140.565 33.1846 140.916 33.4682 141.296 33.7961C141.485 33.96 141.68 34.1351 141.836 34.2879C141.993 34.4364 142.116 34.5804 142.134 34.6158C142.222 34.7643 142.412 34.8108 142.56 34.7244C142.708 34.6358 142.754 34.4452 142.668 34.2968C142.575 34.1484 142.441 34.011 142.269 33.8404H142.264Z" fill="#695172"/>
<path d="M141.955 29.7128C141.697 29.4048 141.47 29.1323 141.47 29.1323C141.36 28.9994 141.166 28.9839 141.033 29.0925C140.903 29.2032 140.885 29.3982 140.993 29.5311C140.993 29.5311 141.9 30.6212 142.169 30.9136C142.286 31.0399 142.483 31.0466 142.606 30.9314C142.732 30.8139 142.739 30.6168 142.624 30.4927C142.507 30.3664 142.211 30.0208 141.953 29.715L141.955 29.7128Z" fill="#695172"/>
<path d="M129.107 46.9033C129.235 46.8612 129.35 46.8058 129.469 46.7549C129.57 46.7106 129.674 46.6707 129.771 46.6197C129.934 46.5377 130.082 46.4447 130.228 46.3494C130.261 46.3273 130.296 46.3073 130.329 46.283C130.499 46.1655 130.654 46.0415 130.797 45.9107C130.003 45.3059 126.795 44.3178 124.72 46.0636C124.871 46.1766 125.038 46.2852 125.21 46.3915C125.257 46.4203 125.303 46.4469 125.349 46.4757C125.53 46.5798 125.72 46.6773 125.919 46.7637C125.954 46.7792 125.989 46.7903 126.025 46.8036C126.212 46.8789 126.406 46.9454 126.607 46.9986C126.647 47.0097 126.686 47.023 126.728 47.0318C126.951 47.085 127.183 47.1182 127.421 47.1337C127.472 47.1382 127.525 47.1382 127.576 47.1404C127.825 47.147 128.079 47.1404 128.339 47.0983C128.608 47.054 128.864 46.9875 129.107 46.9033Z" fill="#E9465B"/>
<path d="M121.342 28.944H121.333C120.616 28.9462 120.003 29.1058 119.542 29.4868C119.078 29.8679 118.858 30.455 118.867 31.0355C118.867 31.3789 119.145 31.6581 119.487 31.6581C119.829 31.6581 120.107 31.3789 120.107 31.0355C120.113 30.7187 120.19 30.5747 120.336 30.444C120.486 30.3154 120.797 30.1892 121.34 30.1892H121.347C121.96 30.2002 122.194 30.4129 122.373 30.6278L122.545 30.9358L122.576 31.0311L122.58 31.0488C122.646 31.3811 122.966 31.6005 123.302 31.5384C123.639 31.4742 123.86 31.1485 123.796 30.8117C123.783 30.7541 123.703 30.3287 123.35 29.8657C123.006 29.4004 122.318 28.9352 121.342 28.944Z" fill="#201823"/>
<path d="M133.573 31.4387C133.58 31.1219 133.657 30.9757 133.802 30.8472C133.953 30.7187 134.264 30.5924 134.806 30.5924H134.813C135.426 30.6035 135.66 30.8162 135.839 31.0311L136.011 31.339L136.042 31.4343L136.046 31.452C136.113 31.7844 136.433 32.0037 136.768 31.9417C137.103 31.8774 137.326 31.5539 137.262 31.215C137.249 31.1596 137.17 30.732 136.817 30.2689C136.472 29.8036 135.784 29.3384 134.809 29.3472H134.8C134.083 29.3495 133.469 29.509 133.008 29.8901C132.545 30.2711 132.324 30.8583 132.331 31.4387C132.331 31.7821 132.609 32.0613 132.951 32.0613C133.293 32.0613 133.571 31.7821 133.571 31.4387H133.573Z" fill="#201823"/>
<path d="M109.538 78.3265C112.035 76.0312 113.984 71.075 115.263 67.3241C115.784 65.7865 116.334 64.9867 116.764 64.5812C117.196 64.1758 117.499 64.1514 117.609 64.1492H117.649L117.651 64.1514V64.147C117.814 64.1802 117.975 64.0827 118.015 63.9188C118.055 63.7526 117.953 63.5842 117.785 63.5444L117.607 63.5266C117.355 63.5244 116.87 63.6241 116.338 64.1293C115.804 64.6344 115.217 65.5273 114.674 67.1247C113.423 70.8424 111.435 75.7698 109.118 77.8679C108.993 77.9831 108.981 78.1803 109.098 78.3066C109.213 78.4329 109.41 78.444 109.535 78.3265H109.538Z" fill="#707070"/>
<path d="M115.636 81.6676C115.435 82.0398 115.252 82.3522 115.1 82.5871C114.95 82.8197 114.818 82.9836 114.769 83.0213C114.639 83.1321 114.623 83.3293 114.734 83.46C114.844 83.5907 115.041 83.6062 115.171 83.4954C115.316 83.3669 115.449 83.1853 115.619 82.9283C116.768 81.1492 119.195 75.8473 119.701 72.1607C120.056 69.5241 120.707 67.8159 121.261 66.7724C121.536 66.2496 121.79 65.8951 121.969 65.6713L122.179 65.4342L122.232 65.3833L122.243 65.3722C122.373 65.2614 122.388 65.0642 122.278 64.9335C122.168 64.8028 121.971 64.7873 121.841 64.8981C121.784 64.9446 119.815 66.6772 119.089 72.0765C118.82 74.0793 117.916 76.687 116.982 78.8561C116.517 79.9417 116.042 80.921 115.641 81.6654L115.636 81.6676Z" fill="#707070"/>
<path d="M123.469 87.5078C123.639 87.5167 123.787 87.386 123.796 87.2131C123.893 85.3609 124.363 79.9505 124.807 75.0143C125.029 72.5462 125.246 70.1932 125.405 68.4585C125.566 66.7237 125.669 65.6092 125.669 65.6048C125.685 65.4342 125.561 65.2813 125.389 65.2658C125.219 65.2503 125.067 65.3744 125.052 65.5472C125.052 65.5516 123.372 83.4267 123.174 87.1799C123.165 87.3505 123.295 87.4989 123.467 87.5078H123.469Z" fill="#707070"/>
<path d="M135.819 85.5338C135.985 85.4939 136.088 85.3255 136.049 85.1571C135.093 81.1868 134.076 76.2749 133.299 72.3578C132.911 70.3993 132.582 68.6889 132.351 67.4703C132.119 66.2496 131.984 65.5229 131.984 65.5206C131.953 65.3523 131.792 65.2393 131.622 65.2703C131.455 65.3013 131.342 65.463 131.373 65.6336C131.373 65.6336 133.524 77.334 135.444 85.3055C135.484 85.4717 135.651 85.5758 135.817 85.536L135.819 85.5338Z" fill="#707070"/>
<path d="M141.768 79.0599C141.768 79.0599 141.678 78.9425 141.589 78.7719C140.938 77.5423 139.482 73.4767 138.657 70.8712C136.934 65.432 135.034 64.4616 134.934 64.4151C134.78 64.342 134.595 64.4084 134.522 64.5635C134.449 64.7164 134.515 64.9003 134.667 64.9756C134.683 64.9845 136.426 65.8862 138.068 71.0595C138.553 72.5883 139.244 74.5933 139.873 76.2617C140.186 77.0969 140.486 77.8458 140.738 78.4152C140.863 78.6988 140.978 78.9381 141.08 79.1242C141.19 79.3125 141.249 79.4365 141.4 79.5562C141.539 79.6559 141.733 79.6249 141.832 79.4853C141.929 79.3501 141.898 79.164 141.768 79.0621H141.77L141.768 79.0599Z" fill="#707070"/>
<path d="M145.267 76.2484C144.129 74.6864 141.757 71.208 141.055 68.7642C139.645 63.8922 138.438 62.8708 138.363 62.8066C138.231 62.698 138.035 62.7202 137.926 62.8531C137.818 62.986 137.84 63.1832 137.973 63.2918C138.043 63.3538 139.155 64.4328 140.457 68.937C141.472 72.4177 145.389 77.4448 145.395 77.4625C145.501 77.5976 145.695 77.622 145.83 77.5179C145.965 77.4137 145.989 77.2166 145.885 77.0814C145.885 77.0814 145.645 76.7712 145.265 76.2484H145.267Z" fill="#707070"/>
<path d="M138.321 86.287C134.544 88.5691 130.93 89.4597 127.565 89.4619C121.329 89.4619 115.925 86.3801 112.082 83.2783C110.16 81.7274 108.628 80.1765 107.58 79.0134C107.055 78.4329 106.651 77.9477 106.38 77.6109C106.109 77.2719 105.97 77.0858 105.97 77.0836C105.868 76.9463 105.674 76.9152 105.537 77.0172C105.4 77.1191 105.369 77.314 105.471 77.4514C105.497 77.4669 114.672 90.0601 127.565 90.0845C131.04 90.0845 134.776 89.1584 138.641 86.821C138.787 86.7324 138.836 86.5418 138.747 86.3934C138.659 86.2472 138.469 86.1984 138.321 86.287Z" fill="#707070"/>
<path d="M41.8883 138.419C44.9929 141.829 51.4447 149.397 53.2606 154.892C54.7721 159.438 55.8731 163.592 55.8687 165.876C55.8687 166.342 55.8224 166.725 55.7363 167.004C55.6856 167.168 55.7783 167.343 55.9415 167.394C56.1048 167.445 56.2791 167.352 56.3299 167.188C56.4424 166.82 56.4888 166.384 56.4888 165.879C56.4843 163.424 55.3656 159.276 53.8476 154.697C52.5788 150.886 49.2779 146.278 46.2947 142.593C43.3093 138.913 40.6394 136.173 40.635 136.168C40.5997 136.133 40.5512 136.128 40.5048 136.113C40.3989 136.077 40.282 136.079 40.1959 136.164C40.1452 136.212 40.1297 136.279 40.1209 136.343C40.1077 136.436 40.1209 136.531 40.1915 136.605C40.1915 136.605 40.8535 137.285 41.8883 138.424V138.419Z" fill="#707070"/>
<path d="M24.9887 115.865C24.9887 115.865 24.7327 115.933 24.2914 116.051L22.4159 109.639C22.3673 109.475 22.1952 109.38 22.0319 109.429C21.8687 109.477 21.7738 109.65 21.8223 109.814L23.6934 116.213C23.0822 116.379 22.2857 116.594 21.3634 116.848L20.2381 110.188C20.2094 110.02 20.0505 109.905 19.8806 109.934C19.7129 109.962 19.5982 110.124 19.6269 110.293L20.7632 117.015C19.8674 117.261 18.8833 117.535 17.8572 117.823L16.3701 111.27C16.3325 111.101 16.1649 110.997 15.9994 111.035C15.8317 111.072 15.728 111.241 15.7655 111.407L17.2593 117.992C16.8996 118.094 16.5378 118.195 16.1715 118.302C15.4897 118.497 14.8079 118.694 14.1327 118.893L12.3542 112.559C12.3079 112.393 12.1358 112.298 11.9725 112.344C11.807 112.391 11.7121 112.564 11.7585 112.727L13.5391 119.068C12.3697 119.414 11.251 119.753 10.236 120.072L8.34279 113.74C8.29425 113.576 8.11994 113.483 7.95666 113.532C7.79338 113.58 7.7007 113.756 7.74924 113.919L9.64463 120.26C8.76865 120.542 7.99196 120.805 7.38076 121.034C7.3278 121.054 7.28588 121.071 7.23513 121.089L5.13233 114.611C5.07937 114.447 4.90506 114.358 4.74178 114.411C4.5785 114.464 4.49024 114.64 4.54319 114.803L6.65923 121.319C6.39004 121.435 6.17601 121.543 6.02596 121.643C5.88475 121.74 5.84944 121.935 5.94874 122.075C6.04582 122.217 6.24 122.252 6.37901 122.152C6.52905 122.044 6.97917 121.84 7.597 121.61C9.77702 120.792 14.1724 119.503 18.0139 118.421C19.9358 117.881 21.7186 117.391 23.0227 117.037C24.3267 116.682 25.1453 116.463 25.1475 116.463C25.313 116.419 25.4123 116.248 25.3682 116.082C25.3241 115.916 25.1542 115.816 24.9887 115.86V115.865Z" fill="#333044"/>
<path d="M9.15694 111.221C9.3158 111.154 9.38862 110.973 9.32242 110.813C8.87009 109.734 8.68474 108.757 8.68474 107.875C8.68474 105.54 9.99982 103.814 11.348 102.651C12.021 102.073 12.6984 101.641 13.2037 101.355C13.4574 101.213 13.667 101.107 13.8127 101.036C13.9583 100.965 14.0355 100.934 14.0355 100.934C14.1944 100.868 14.2694 100.686 14.2032 100.529C14.137 100.369 13.9561 100.294 13.7972 100.36C13.7796 100.369 12.3674 100.954 10.942 102.181C9.5188 103.402 8.06251 105.292 8.0603 107.878C8.0603 108.848 8.26551 109.909 8.74653 111.057C8.81272 111.216 8.99365 111.29 9.15252 111.223L9.15694 111.221Z" fill="#DB8252"/>
<path d="M179.748 144.778C179.748 144.762 188.733 116.638 188.738 100.265C188.738 99.5316 188.72 98.8227 188.683 98.1403C188.674 97.9697 188.526 97.8367 188.356 97.8478C188.186 97.8567 188.054 98.0051 188.065 98.1757C188.102 98.8448 188.12 99.5427 188.12 100.265C188.12 108.35 185.883 119.445 183.641 128.502C182.52 133.031 181.399 137.054 180.558 139.943C180.139 141.388 179.788 142.549 179.543 143.349C179.298 144.149 179.159 144.585 179.159 144.587C179.106 144.751 179.197 144.926 179.36 144.979C179.384 144.988 179.406 144.973 179.431 144.973C179.453 144.973 179.475 144.973 179.497 144.968C179.609 144.951 179.713 144.895 179.748 144.778Z" fill="#707070"/>
</g>
<defs>
<clipPath id="clip0_180_4751">
<rect x="31" y="35" width="199" height="199" rx="99.5" fill="white"/>
</clipPath>
<clipPath id="clip1_180_4751">
<rect width="219" height="235" fill="white" transform="translate(0 -1)"/>
</clipPath>
<clipPath id="clip2_180_4751">
<rect width="219" height="185" fill="white"/>
</clipPath>
</defs>
</svg>
