<svg width="53" height="52" viewBox="0 0 53 52" fill="none" xmlns="http://www.w3.org/2000/svg">
<path d="M26.5 0C25.8644 0 25.3444 0.52 25.3444 1.15556V11.5556C25.3444 12.1911 25.8644 12.7111 26.5 12.7111C27.1356 12.7111 27.6556 12.1911 27.6556 11.5556V1.15556C27.6556 0.52 27.1356 0 26.5 0ZM8.92978 7.27422C8.63511 7.27422 8.34045 7.38978 8.11511 7.61511C7.66444 8.06578 7.66444 8.788 8.11511 9.23867L15.4644 16.6053C15.9151 17.056 16.6547 17.056 17.1053 16.6053C17.556 16.1547 17.556 15.4151 17.1053 14.9644L9.73867 7.61511C9.51333 7.38978 9.22444 7.27422 8.924 7.27422H8.92978ZM44.0644 7.27422C43.7698 7.27422 43.4751 7.38978 43.2498 7.61511L35.8831 14.9644C35.4324 15.4151 35.4324 16.1547 35.8831 16.6053C36.3338 17.056 37.0733 17.056 37.524 16.6053L44.8733 9.23867C45.324 8.788 45.324 8.06578 44.8733 7.61511C44.648 7.38978 44.3591 7.27422 44.0587 7.27422H44.0644ZM26.4942 17.9111C22.028 17.9111 18.4053 21.5338 18.4053 26C18.4053 30.4662 22.028 34.0889 26.4942 34.0889C30.9604 34.0889 34.5831 30.4662 34.5831 26C34.5831 21.5338 30.9604 17.9111 26.4942 17.9111ZM1.65556 24.8444C1.02 24.8444 0.5 25.3644 0.5 26C0.5 26.6356 1.02 27.1556 1.65556 27.1556H12.0556C12.6911 27.1556 13.2111 26.6356 13.2111 26C13.2111 25.3644 12.6911 24.8444 12.0556 24.8444H1.65556ZM40.9444 24.8444C40.3089 24.8444 39.7889 25.3644 39.7889 26C39.7889 26.6356 40.3089 27.1556 40.9444 27.1556H51.3444C51.98 27.1556 52.5 26.6356 52.5 26C52.5 25.3644 51.98 24.8444 51.3444 24.8444H40.9444ZM16.2791 35.0653C15.9844 35.0653 15.6898 35.1636 15.4644 35.3889L8.11511 42.7556C7.66444 43.2062 7.66444 43.9284 8.11511 44.3791C8.56578 44.8298 9.288 44.8298 9.73867 44.3791L17.1053 37.0298C17.556 36.5791 17.556 35.8396 17.1053 35.3889C16.88 35.1636 16.568 35.0653 16.2733 35.0653H16.2791ZM36.7209 35.0653C36.4262 35.0653 36.1142 35.1636 35.8889 35.3889C35.4382 35.8396 35.4382 36.5791 35.8889 37.0298L43.2556 44.3791C43.7062 44.8298 44.4284 44.8298 44.8791 44.3791C45.3298 43.9284 45.3298 43.2062 44.8791 42.7556L37.5298 35.3889C37.3044 35.1636 37.0156 35.0653 36.7151 35.0653H36.7209ZM26.5 39.2889C25.8644 39.2889 25.3444 39.8089 25.3444 40.4444V50.8444C25.3444 51.48 25.8644 52 26.5 52C27.1356 52 27.6556 51.48 27.6556 50.8444V40.4444C27.6556 39.8089 27.1356 39.2889 26.5 39.2889Z" fill="#00A100"/>
</svg>
