<svg width="67" height="82" viewBox="0 0 67 82" fill="none" xmlns="http://www.w3.org/2000/svg">
<path fill-rule="evenodd" clip-rule="evenodd" d="M50.9189 38.494L38.6511 17.0095C38.1021 16.0429 37.3566 15.2888 36.4822 14.7815C35.6147 14.2742 34.598 14 33.4932 14C32.3884 14 31.426 14.2605 30.572 14.7404L30.511 14.7815C29.6367 15.2957 28.8911 16.0497 28.3421 17.0095L16.0811 38.494L3.82011 59.9716C3.27111 60.9313 3 61.9528 3 62.9811C3 64.0093 3.25756 64.9897 3.77944 65.922C3.793 65.9425 3.80656 65.9631 3.82011 65.9837C4.36911 66.9503 5.11467 67.7044 5.98222 68.2116C6.84978 68.7189 7.86644 68.9931 8.97122 68.9931H58.022C59.1268 68.9931 60.1434 68.7258 61.011 68.2116C61.8786 67.7044 62.6241 66.9503 63.1731 65.9837C63.7153 65.0308 63.9932 64.0025 63.9932 62.9742C63.9932 61.9459 63.7221 60.9176 63.1731 59.9647L50.9528 38.5557C50.9528 38.5557 50.9257 38.5077 50.9053 38.4802L50.9189 38.494ZM35.6621 56.5097C36.2382 57.0924 36.5568 57.8739 36.5568 58.6896C36.5568 59.5054 36.2382 60.2938 35.6621 60.8696C35.086 61.4523 34.3133 61.7745 33.5068 61.7745C32.7002 61.7745 31.9208 61.4523 31.3514 60.8696C30.7753 60.2869 30.4568 59.5054 30.4568 58.6896C30.4568 57.8739 30.7753 57.0855 31.3514 56.5097C31.9276 55.927 32.7002 55.6048 33.5068 55.6048C34.3133 55.6048 35.0928 55.927 35.6621 56.5097ZM36.4958 32.7012C36.306 38.3774 36.1094 44.0742 35.7096 49.7298C35.6486 50.5387 35.2283 51.2585 34.4896 51.6013C34.1846 51.7452 33.8457 51.8206 33.5068 51.8206C33.1679 51.8206 32.829 51.7452 32.5172 51.6013C31.7784 51.2585 31.3718 50.5318 31.3108 49.7298C30.9244 44.3004 30.7279 38.8436 30.5449 33.4073C30.511 32.5161 30.4839 31.6181 30.45 30.7269C30.4026 29.493 30.9787 28.3893 32.1106 27.8888C32.5443 27.6969 33.0188 27.6009 33.4932 27.6009C33.9677 27.6009 34.4421 27.6969 34.8827 27.8888C36.0213 28.3893 36.6042 29.493 36.5636 30.7338C36.5364 31.3919 36.5161 32.05 36.4958 32.7081V32.7012Z" fill="#00A100"/>
</svg>
