<svg width="67" height="82" viewBox="0 0 67 82" fill="none" xmlns="http://www.w3.org/2000/svg">
<path d="M34.5897 43.7657V29.5179C34.5897 29.2347 34.4808 28.9623 34.2738 28.7663C34.0777 28.5484 33.7945 28.4286 33.5004 28.4286C32.9013 28.4286 32.4111 28.9188 32.4111 29.5179V43.7657C33.1301 43.6459 33.8708 43.6459 34.5897 43.7657Z" fill="#00A100"/>
<path d="M58.4122 49.43C59.2074 46.9355 59.6214 44.343 59.6431 41.7287C59.7194 28.08 49.3167 16.6534 35.7224 15.4552C34.9708 15.3898 34.2192 15.3571 33.4785 15.3571C26.9319 15.3354 20.614 17.808 15.8103 22.2632C10.4401 27.2195 7.37921 34.1909 7.35742 41.5C7.35742 44.1905 7.77135 46.8593 8.58831 49.4191C8.72992 49.8875 9.15474 50.2034 9.64492 50.2143H25.9624C26.3328 47.698 27.934 45.5195 30.2324 44.4302V29.5179C30.2324 27.7096 31.6921 26.25 33.5003 26.25C35.2976 26.25 36.7572 27.7205 36.7681 29.5179V44.4302C39.0665 45.5304 40.6678 47.698 41.0381 50.2143H57.3665C57.8567 50.2143 58.2815 49.8875 58.4231 49.43H58.4122ZM12.8039 42.5893H10.6253C10.0262 42.5893 9.53599 42.0991 9.53599 41.5C9.53599 40.9009 10.0262 40.4107 10.6253 40.4107H12.8039C13.403 40.4107 13.8931 40.9009 13.8931 41.5C13.8931 42.0991 13.403 42.5893 12.8039 42.5893ZM16.5183 31.6964C16.2133 32.2193 15.5489 32.3936 15.026 32.0995L13.1415 31.0102C12.6187 30.7161 12.4335 30.0516 12.7276 29.5287C13.0217 29.0059 13.6862 28.8207 14.209 29.1148C14.209 29.1148 14.209 29.1148 14.2199 29.1148L16.1044 30.2041C16.6272 30.5091 16.8015 31.1736 16.5074 31.6964H16.5183ZM23.6967 24.518C23.1739 24.823 22.5094 24.6379 22.2044 24.115L21.1151 22.2305C20.821 21.7077 20.9953 21.0432 21.529 20.7491C22.0519 20.455 22.7055 20.6293 23.0105 21.1412L24.0997 23.0257C24.4047 23.5486 24.2196 24.213 23.6967 24.518ZM34.5896 20.8036C34.5896 21.4027 34.0994 21.8929 33.5003 21.8929C32.9012 21.8929 32.411 21.4027 32.411 20.8036V18.625C32.411 18.0259 32.9012 17.5357 33.5003 17.5357C34.0994 17.5357 34.5896 18.0259 34.5896 18.625V20.8036ZM45.8855 22.2305L44.7962 24.115C44.5021 24.6379 43.8376 24.823 43.3147 24.5289C42.7919 24.2348 42.6067 23.5704 42.9008 23.0475C42.9008 23.0475 42.9008 23.0475 42.9008 23.0366L43.9901 21.1521C44.2842 20.6293 44.9487 20.4441 45.4715 20.7382C45.9944 21.0323 46.1796 21.6968 45.8855 22.2196C45.8855 22.2196 45.8855 22.2196 45.8855 22.2305ZM51.4299 32.2411C50.8308 32.2411 50.3406 31.7509 50.3406 31.1518C50.3406 30.7596 50.5476 30.4002 50.8853 30.2041L52.7697 29.1148C53.2926 28.8207 53.9571 28.995 54.2512 29.5287C54.5453 30.0516 54.371 30.7052 53.859 31.0102L51.9746 32.0995C51.8112 32.1975 51.626 32.2411 51.4299 32.2411ZM56.3753 42.5893H54.1967C53.5976 42.5893 53.1074 42.0991 53.1074 41.5C53.1074 40.9009 53.5976 40.4107 54.1967 40.4107H56.3753C56.9744 40.4107 57.4646 40.9009 57.4646 41.5C57.4646 42.0991 56.9744 42.5893 56.3753 42.5893Z" fill="#00A100"/>
<path d="M33.4996 45.8571C30.9071 45.8571 28.685 47.6762 28.1621 50.2143H38.8371C38.3143 47.6762 36.0921 45.8571 33.4996 45.8571Z" fill="#00A100"/>
<path d="M33.5 72C50.3404 72 64 58.3404 64 41.5C64 24.6596 50.3404 11 33.5 11C16.6596 11 3 24.6596 3 41.5C3.02179 58.3404 16.6596 71.9782 33.5 72ZM45.4821 63.2857C45.4821 64.4839 44.5018 65.4643 43.3036 65.4643H23.6964C22.4982 65.4643 21.5179 64.4839 21.5179 63.2857V58.9286C21.5179 57.7304 22.4982 56.75 23.6964 56.75H43.3036C44.5018 56.75 45.4821 57.7304 45.4821 58.9286V63.2857ZM6.5075 50.0836C5.62518 47.3059 5.16768 44.4084 5.17857 41.5C5.18946 33.5809 8.51179 26.0321 14.3286 20.662C20.1454 15.2591 27.9882 12.5795 35.8964 13.2766C50.6345 14.5729 61.9086 26.9471 61.8214 41.7396C61.7996 44.5718 61.353 47.393 60.4925 50.0945C60.0677 51.4561 58.7932 52.3929 57.3662 52.3929H9.64464C8.20679 52.3929 6.94321 51.4561 6.5075 50.0836Z" fill="#00A100"/>
<path d="M43.3044 58.9286H23.6973V63.2857H43.3044V58.9286Z" fill="#00A100"/>
</svg>
