<svg width="61" height="55" viewBox="0 0 61 55" fill="none" xmlns="http://www.w3.org/2000/svg">
<path d="M37.935 23.6998L40.1939 29.8139C40.7452 31.3054 42.2012 32.305 43.807 32.305H55.1281C56.7339 32.305 58.1899 31.3001 58.7412 29.8086L61.0001 23.6998H37.9297H37.935Z" fill="#00A100"/>
<path d="M40.8894 22.1132H43.4052L48.7365 10.5092C49.0202 9.89039 49.9142 9.89039 50.1978 10.5092L55.5238 22.1132H58.0396L50.5083 5.70682C50.4013 5.4741 50.23 5.29428 49.9891 5.16734C49.3307 4.84471 43.3303 1.99925 34.9746 1.85645C35.1727 2.62335 35.1727 3.35851 34.9746 4.12541C40.5415 4.2259 44.9736 5.59575 47.1628 6.42612C47.5964 6.59007 47.7945 7.07666 47.6071 7.49449L40.8894 22.1132Z" fill="#00A100"/>
<path d="M43.3364 51.9854H17.6646C17.2738 51.9854 16.958 52.2974 16.958 52.6782V55.0001H44.0429V52.6782C44.0429 52.2974 43.7271 51.9854 43.3364 51.9854Z" fill="#00A100"/>
<path d="M21.9566 44.66L19.8369 50.3986H41.1623L39.0426 44.66H21.9566Z" fill="#00A100"/>
<path d="M32.7968 4.90816C33.7389 3.80277 33.6693 2.31657 33.0966 1.45976C31.935 -0.486585 29.0713 -0.486585 27.9044 1.45976C27.048 2.87191 27.5458 4.68074 28.8893 5.50053C30.099 6.26214 31.7905 6.08232 32.7915 4.90816H32.7968Z" fill="#00A100"/>
<path d="M29.2637 7.38342V43.0734H31.7366V7.38342C30.9177 7.61085 30.0826 7.61085 29.2637 7.38342Z" fill="#00A100"/>
<path d="M13.8368 6.42607C16.026 5.59571 20.4581 4.22586 26.025 4.12537C25.8216 3.34789 25.8269 2.61802 26.025 1.86169C19.9175 1.96747 13.992 3.65466 10.9837 5.18317C10.7696 5.29952 10.593 5.47935 10.4913 5.70678L2.95996 22.1132H5.47576L10.8017 10.5092C11.0854 9.89035 11.9794 9.89035 12.263 10.5092L17.5944 22.1132H20.1102L13.3925 7.49445C13.1998 7.07662 13.4032 6.59003 13.8368 6.42607Z" fill="#00A100"/>
<path d="M5.87197 32.305H17.1984C18.8042 32.305 20.2548 31.3001 20.8062 29.8086L23.065 23.6998H0L2.25886 29.8139C2.8102 31.3054 4.26615 32.305 5.87197 32.305Z" fill="#00A100"/>
</svg>
