<svg width="67" height="82" viewBox="0 0 67 82" fill="none" xmlns="http://www.w3.org/2000/svg">
<path d="M52.9091 3H14.0909C7.96318 3 3 7.85857 3 13.8571V68.1429C3 74.1414 7.96318 79 14.0909 79H52.9091C59.0368 79 64 74.1414 64 68.1429V13.8571C64 7.85857 59.0368 3 52.9091 3ZM46.5595 53.7843L32.6959 67.3557C31.6145 68.4143 29.8677 68.4143 28.7864 67.3557L20.4682 59.2129C19.47 58.0729 19.6086 56.3629 20.7732 55.3857C21.7991 54.5171 23.3518 54.5171 24.3777 55.3857L30.7273 61.6014L42.6223 49.9571C43.7868 48.98 45.5336 49.1157 46.5318 50.2557C47.4191 51.26 47.4191 52.78 46.5318 53.7843H46.5595ZM47.3636 43.7143H19.6364C18.1114 43.7143 16.8636 42.4929 16.8636 41C16.8636 39.5071 18.1114 38.2857 19.6364 38.2857H47.3636C48.8886 38.2857 50.1364 39.5071 50.1364 41C50.1364 42.4929 48.8886 43.7143 47.3636 43.7143ZM47.3636 32.8571H19.6364C18.1114 32.8571 16.8636 31.6357 16.8636 30.1429C16.8636 28.65 18.1114 27.4286 19.6364 27.4286H47.3636C48.8886 27.4286 50.1364 28.65 50.1364 30.1429C50.1364 31.6357 48.8886 32.8571 47.3636 32.8571ZM47.3636 22H19.6364C18.1114 22 16.8636 20.7786 16.8636 19.2857C16.8636 17.7929 18.1114 16.5714 19.6364 16.5714H47.3636C48.8886 16.5714 50.1364 17.7929 50.1364 19.2857C50.1364 20.7786 48.8886 22 47.3636 22Z" fill="#00A100"/>
</svg>
