<svg width="58" height="58" viewBox="0 0 58 58" fill="none" xmlns="http://www.w3.org/2000/svg">
<path d="M35.9404 0.837769C40.0378 6.05777 42.8204 15.8292 43.0543 27.3889H57.9999C57.2902 14.5 48.1115 3.83444 35.9404 0.837769Z" fill="#00A100"/>
<path d="M35.9404 57.1622C48.1115 54.1736 57.2821 43.508 57.9999 30.6111H43.0543C42.8204 42.1628 40.0378 51.9422 35.9404 57.1622Z" fill="#00A100"/>
<path d="M18.1797 30.6111C18.5104 43.8866 22.8578 58 28.9957 58C35.1337 58 39.481 43.8866 39.8117 30.6111H18.1797Z" fill="#00A100"/>
<path d="M22.0595 0.837769C9.88847 3.82638 0.717842 14.4919 0 27.3889H14.9456C15.1795 15.8372 17.9622 6.05777 22.0595 0.837769Z" fill="#00A100"/>
<path d="M18.1797 27.3889H39.8117C39.481 14.1133 35.1337 0 28.9957 0C22.8578 0 18.5104 14.1133 18.1797 27.3889Z" fill="#00A100"/>
<path d="M0.0078125 30.6111C0.717589 43.5 9.89628 54.1655 22.0673 57.1622C17.97 51.9422 15.1873 42.1708 14.9534 30.6111H0.0078125Z" fill="#00A100"/>
</svg>
